<?xml version="1.0" standalone="no"?>
<!DOCTYPE svg PUBLIC "-//W3C//DTD SVG 20010904//EN"
 "http://www.w3.org/TR/2001/REC-SVG-20010904/DTD/svg10.dtd">
<svg version="1.0" xmlns="http://www.w3.org/2000/svg"
 width="512.000000pt" height="512.000000pt" viewBox="0 0 512.000000 512.000000"
 preserveAspectRatio="xMidYMid meet">
<metadata>
Created by potrace 1.11, written by Peter Selinger 2001-2013
</metadata>
<g transform="translate(0.000000,512.000000) scale(0.100000,-0.100000)"
fill="#000000" stroke="none">
<path d="M2380 5114 c-19 -2 -78 -9 -130 -15 -429 -48 -875 -228 -1235 -498
-127 -96 -343 -306 -448 -436 -234 -290 -422 -676 -501 -1031 -48 -211 -60
-332 -60 -579 0 -186 5 -256 22 -370 33 -207 52 -278 80 -290 24 -11 28 -20
12 -30 -5 -3 -10 -18 -10 -33 l0 -26 34 33 c30 29 38 32 72 26 96 -15 95 -8
11 -93 -59 -59 -74 -81 -67 -92 8 -12 28 3 102 78 l93 92 75 0 75 0 -149 -149
c-117 -117 -146 -152 -139 -165 7 -13 40 15 173 149 91 91 172 165 180 165 9
0 45 29 80 65 67 68 172 146 250 185 121 62 290 97 409 85 90 -9 242 -48 279
-71 2 -1 -19 -22 -45 -47 -27 -25 -64 -67 -82 -94 -29 -41 -21 -36 56 41 l91
88 48 -18 c27 -9 51 -19 54 -21 2 -2 -84 -92 -192 -201 -140 -141 -197 -205
-201 -226 -4 -23 39 15 227 202 142 141 241 232 257 236 14 3 57 24 95 46 150
88 340 121 497 86 88 -20 210 -77 287 -135 l54 -41 23 24 c14 16 42 29 78 36
67 14 112 49 124 98 5 20 12 120 15 222 4 102 13 262 21 355 8 94 15 199 15
234 0 165 -63 417 -145 582 -62 122 -121 208 -150 215 -34 8 -120 -29 -165
-71 -48 -46 -78 -51 -135 -26 -39 17 -59 20 -115 15 -62 -6 -68 -5 -74 13 -6
17 -13 19 -54 15 -39 -3 -50 0 -66 17 -22 24 -51 26 -107 9 -73 -22 -139 17
-139 81 0 11 -12 24 -30 31 l-31 13 56 58 c30 31 55 62 55 67 0 6 3 19 6 29 4
10 -28 -16 -70 -57 -82 -81 -96 -82 -96 -12 0 53 51 97 129 113 l62 13 30 97
c32 103 58 146 110 185 52 38 103 48 254 47 213 0 408 -47 630 -152 113 -54
199 -121 281 -219 308 -368 563 -1020 790 -2017 60 -266 63 -339 18 -435 -34
-72 -97 -141 -157 -172 -22 -11 -145 -59 -274 -108 -129 -49 -255 -101 -281
-116 -25 -15 -80 -59 -122 -98 -168 -157 -271 -233 -416 -305 -54 -27 -110
-52 -124 -57 -22 -6 -23 -5 -11 10 12 14 10 16 -12 16 -16 0 -35 -11 -50 -30
-25 -29 -60 -41 -187 -64 l-35 -6 45 45 c41 41 42 45 21 45 -15 0 -44 -19 -77
-50 l-53 -50 -73 0 -72 0 67 68 c55 56 66 71 54 80 -10 9 -29 -5 -91 -67 -76
-77 -79 -79 -120 -74 -99 11 -100 3 19 123 87 87 107 112 97 122 -10 10 -37
-12 -131 -106 l-118 -118 -57 12 c-31 6 -56 15 -56 18 0 4 61 68 135 142 107
106 132 137 123 148 -9 11 -39 -15 -154 -129 l-143 -143 -64 -1 c-44 0 -73 -6
-93 -19 -16 -10 54 66 156 168 147 149 182 188 170 196 -23 14 -322 -286 -350
-351 -11 -27 -25 -51 -30 -54 -14 -9 -87 -156 -138 -275 -63 -150 -68 -131 55
-185 226 -99 451 -165 688 -201 168 -26 559 -26 730 0 556 84 1049 332 1445
726 501 499 772 1186 746 1890 -19 543 -193 1034 -518 1468 -92 122 -304 341
-429 441 -358 289 -777 473 -1232 542 -125 19 -470 33 -557 23z"/>
<path d="M2850 1995 c-99 -99 -122 -127 -112 -137 18 -18 245 209 240 241 -2
18 -23 2 -128 -104z"/>
<path d="M2960 1905 c-50 -51 -52 -55 -29 -55 34 0 105 72 92 94 -7 13 -18 7
-63 -39z"/>
<path d="M1269 1213 c-14 -15 -44 -54 -68 -86 -45 -61 -69 -86 -219 -231 -51
-49 -107 -107 -124 -130 -17 -23 66 56 186 174 208 206 262 268 254 291 -2 5
-15 -3 -29 -18z"/>
<path d="M1404 1133 c-11 -2 -43 -27 -70 -54 l-49 -51 40 17 c37 14 133 97
110 94 -6 -1 -19 -4 -31 -6z"/>
<path d="M1575 1120 c-7 -12 2 -12 30 0 19 8 19 9 -2 9 -12 1 -25 -3 -28 -9z"/>
<path d="M1741 1086 c-21 -22 -32 -41 -29 -55 3 -19 9 -16 58 34 50 51 53 55
29 55 -15 0 -38 -13 -58 -34z"/>
</g>
</svg>
